<?xml version="1.0" encoding="utf-8"?>
<!-- Generator: Adobe Illustrator 21.0.2, SVG Export Plug-In . SVG Version: 6.00 Build 0)  -->
<svg version="1.1" id="Слой_1" xmlns="http://www.w3.org/2000/svg" xmlns:xlink="http://www.w3.org/1999/xlink" x="0px" y="0px"
	 viewBox="0 0 262 78.6" style="enable-background:new 0 0 262 78.6;" xml:space="preserve">
<style type="text/css">
	.st0{fill:#009EE2;}
	.st1{fill:#FFFFFF;}
</style>
<g id="INDIGO">
	<rect x="144.5" y="0" class="st0" width="10.6" height="78.5"/>
	<path class="st0" d="M157.3,41.3l44-13.1c2.8,11.4,1.8,21.6-2.9,30.6s-12.2,15-22.4,18.1c-5.1,1.6-10.4,2-15.7,1.3
		c-5.3-0.8-10.3-2.7-14.8-5.6c-4-2.5-7.5-5.8-10.2-9.6c-2.8-4-5-8.5-6.4-13.2c-1.5-4.9-1.9-10.1-1.3-15.2c0.6-5.2,2.3-10.2,4.8-14.7
		c2.3-4.4,5.4-8.2,9.3-11.3c3.8-3,10-6.1,13.4-6.8c7.3-1.6,14-2.3,20.4-0.5c6.5,1.8,12.2,5.6,16.5,10.9l-12.7,3.6
		c-3.1-2.3-6.6-3.8-10.4-4.4c-3.9-0.6-7.8-0.3-11.6,0.9c-3.3,0.9-6.4,2.6-9,4.8c-2.7,2.2-4.9,4.9-6.5,8c-1.7,3.3-2.8,6.9-3.2,10.6
		c-0.4,3.7-0.1,7.4,0.9,10.9c1,3.6,2.7,7,4.9,10.1c2.1,2.9,4.7,5.3,7.8,7.1c3.1,1.8,6.6,3,10.2,3.5c3.5,0.5,7,0.2,10.4-0.8
		c5.2-1.4,9.7-4.5,13-8.7s5.4-9.5,6.5-16l-32.2,9.6L157.3,41.3z"/>
	<polygon class="st1" points="151.4,75.6 150.1,75 149.3,74.6 148.6,74.3 148.1,74.1 147.6,73.8 147.1,73.5 146.3,73.1 145.6,72.7 
		144.5,72 144.5,6.4 146,5.5 147.5,4.7 148.9,4 150.2,3.4 152.3,2.5 153.7,2 155.1,1.6 155.1,76.9 154,76.6 152.8,76.1 	"/>
	<path class="st1" d="M127.8,11c-7.1-7.3-16.5-10.9-28.1-10.9H73.9v59.3L35.3,0H24.9v78.5h10.4V17.3L74,78.4h22.6
		c6.5,0,11.7-0.5,15.5-1.6c3.9-1.1,7.6-2.9,10.8-5.3c4.9-3.5,8.9-8.2,11.5-13.7c2.7-5.8,4.1-12.2,4-18.7
		C138.5,27.4,134.9,18.3,127.8,11z M119.7,60.4c-5,5.1-11.8,7.6-20.4,7.6H85.7V10.7h11.6c9.4,0,16.7,2.6,22,7.7s8.1,11.7,8.1,20.7
		S124.7,55.3,119.7,60.4z"/>
	<rect x="0.1" y="0" class="st1" width="11.2" height="78.5"/>
	<path class="st1" d="M258.7,23.7c-1.9-4.7-4.8-9-8.5-12.6c-3.5-3.5-7.6-6.3-12.1-8.3c-4.6-1.9-9.5-2.9-14.4-2.8
		c-4.9-0.1-9.7,0.9-14.2,2.8s-8.6,4.7-12,8.2c-7.4,7.3-11.6,17.3-11.6,27.8c0,5,0.8,9.9,2.4,14.6c1.6,4.5,4,8.6,7.2,12.2
		c3.5,4.1,7.8,7.4,12.6,9.7c4.8,2.2,10.1,3.4,15.4,3.3c5.3,0,10.5-1.1,15.4-3.2c4.9-2.2,9.2-5.5,12.8-9.5c3.2-3.5,5.7-7.7,7.3-12.2
		c1.6-4.8,2.4-9.8,2.4-14.8C261.6,33.7,260.7,28.5,258.7,23.7z M242.8,59.4c-4.9,5.4-11.9,8.4-19.2,8.3c-3.5,0-7-0.7-10.2-2.2
		c-6.7-3-11.9-8.5-14.4-15.4c-1.3-3.6-1.9-7.4-1.9-11.2c0-7.5,2.9-14.7,8.1-20.1c4.7-5.1,11.4-8,18.4-7.9c3.7-0.1,7.3,0.7,10.7,2.2
		c3.4,1.7,6.5,4,9,6.8c2.3,2.6,4.1,5.5,5.4,8.7c1.2,3.2,1.9,6.6,1.9,10C250.5,47,247.9,53.8,242.8,59.4z"/>
</g>
</svg>
