<?xml version="1.0" encoding="utf-8"?>
<!-- Generator: Adobe Illustrator 21.0.2, SVG Export Plug-In . SVG Version: 6.00 Build 0)  -->
<svg version="1.1" id="Слой_1" xmlns="http://www.w3.org/2000/svg" xmlns:xlink="http://www.w3.org/1999/xlink" x="0px" y="0px"
	 viewBox="0 0 407.3 126.4" style="enable-background:new 0 0 407.3 126.4;" xml:space="preserve">
<style type="text/css">
	.st0{fill:#009EE2;}
	.st1{fill:#FFFFFF;}
	.st2{fill:url(#SVGID_1_);}
	.st3{fill:url(#SVGID_2_);}
	.st4{fill:url(#SVGID_3_);}
</style>
<g id="INDIGO">
	<rect x="145.5" y="10.3" class="st0" width="10.6" height="78.5"/>
	<path class="st0" d="M158.3,51.6l44-13.1c2.8,11.4,1.8,21.6-2.9,30.6c-4.7,9-12.2,15-22.4,18.1c-5.1,1.6-10.4,2-15.7,1.3
		c-5.3-0.8-10.3-2.7-14.8-5.6c-4-2.5-7.5-5.8-10.2-9.6c-2.8-4-5-8.5-6.4-13.2c-1.5-4.9-1.9-10.1-1.3-15.2c0.6-5.2,2.3-10.2,4.8-14.7
		c2.3-4.4,5.4-8.2,9.3-11.3c3.8-3,10-6.1,13.4-6.8c7.3-1.6,14-2.3,20.4-0.5c6.5,1.8,12.2,5.6,16.5,10.9l-12.7,3.6
		c-3.1-2.3-6.6-3.8-10.4-4.4c-3.9-0.6-7.8-0.3-11.6,0.9c-3.3,0.9-6.4,2.6-9,4.8c-2.7,2.2-4.9,4.9-6.5,8c-1.7,3.3-2.8,6.9-3.2,10.6
		c-0.4,3.7-0.1,7.4,0.9,10.9c1,3.6,2.7,7,4.9,10.1c2.1,2.9,4.7,5.3,7.8,7.1c3.1,1.8,6.6,3,10.2,3.5c3.5,0.5,7,0.2,10.4-0.8
		c5.2-1.4,9.7-4.5,13-8.7c3.3-4.2,5.4-9.5,6.5-16l-32.2,9.6L158.3,51.6z"/>
	<polygon class="st1" points="152.4,85.9 151.1,85.3 150.3,84.9 149.6,84.6 149.1,84.4 148.6,84.1 148.1,83.8 147.3,83.4 146.6,83 
		145.5,82.3 145.5,16.7 147,15.8 148.5,15 149.9,14.3 151.2,13.7 153.3,12.8 154.7,12.3 156.1,11.9 156.1,87.2 155,86.9 153.8,86.4 
			"/>
	<path class="st1" d="M128.8,21.3c-7.1-7.3-16.5-10.9-28.1-10.9H74.9v59.3L36.3,10.3H25.9v78.5h10.4V27.6L75,88.7h22.6
		c6.5,0,11.7-0.5,15.5-1.6c3.9-1.1,7.6-2.9,10.8-5.3c4.9-3.5,8.9-8.2,11.5-13.7c2.7-5.8,4.1-12.2,4-18.7
		C139.5,37.7,135.9,28.6,128.8,21.3z M120.7,70.7c-5,5.1-11.8,7.6-20.4,7.6H86.7V21h11.6c9.4,0,16.7,2.6,22,7.7s8.1,11.7,8.1,20.7
		S125.7,65.6,120.7,70.7z"/>
	<rect x="1.1" y="10.3" class="st1" width="11.2" height="78.5"/>
	<path class="st1" d="M259.7,34c-1.9-4.7-4.8-9-8.5-12.6c-3.5-3.5-7.6-6.3-12.1-8.3c-4.6-1.9-9.5-2.9-14.4-2.8
		c-4.9-0.1-9.7,0.9-14.2,2.8c-4.5,1.9-8.6,4.7-12,8.2c-7.4,7.3-11.6,17.3-11.6,27.8c0,5,0.8,9.9,2.4,14.6c1.6,4.5,4,8.6,7.2,12.2
		c3.5,4.1,7.8,7.4,12.6,9.7c4.8,2.2,10.1,3.4,15.4,3.3c5.3,0,10.5-1.1,15.4-3.2c4.9-2.2,9.2-5.5,12.8-9.5c3.2-3.5,5.7-7.7,7.3-12.2
		c1.6-4.8,2.4-9.8,2.4-14.8C262.6,44,261.7,38.8,259.7,34z M243.8,69.7c-4.9,5.4-11.9,8.4-19.2,8.3c-3.5,0-7-0.7-10.2-2.2
		c-6.7-3-11.9-8.5-14.4-15.4c-1.3-3.6-1.9-7.4-1.9-11.2c0-7.5,2.9-14.7,8.1-20.1c4.7-5.1,11.4-8,18.4-7.9c3.7-0.1,7.3,0.7,10.7,2.2
		c3.4,1.7,6.5,4,9,6.8c2.3,2.6,4.1,5.5,5.4,8.7c1.2,3.2,1.9,6.6,1.9,10C251.5,57.3,248.9,64.1,243.8,69.7z"/>
</g>
<g id="Text">
	<path class="st1" d="M1.1,99.5h3.3c1.3-0.1,2.6,0.1,3.8,0.5c0.8,0.3,1.4,0.9,1.8,1.6c0.5,0.8,0.7,1.7,0.7,2.6c0,1-0.3,2-0.9,2.8
		c-0.6,0.8-1.5,1.3-2.4,1.6c-1,0.2-2.1,0.3-3.2,0.3v6.8H1.1V99.5z M4.2,105.8h1l1.6-0.2c0.3-0.1,0.5-0.3,0.7-0.5
		c0.2-0.3,0.3-0.6,0.3-0.9c0-0.6-0.2-1.1-0.7-1.4c-0.6-0.2-1.3-0.3-1.9-0.3H4.3L4.2,105.8L4.2,105.8z"/>
	<path class="st1" d="M13.7,99.5h8.8v3h-5.7v2.9h5.7v2.9h-5.7v4.2h5.7v3h-8.8V99.5z"/>
	<path class="st1" d="M25.4,99.5h3.1v5.6l4.4-5.6h3.7l-5.6,7.2l6.2,8.9h-3.8l-5-7.2v7.2h-3V99.5z"/>
	<path class="st1" d="M49.7,115.6l-4.5-11.8l-4.5,11.8h-3.3l6.2-16.1h3.1l6.2,16.1H49.7z"/>
	<path class="st1" d="M59.7,99.5h3.1l6.2,16.1h-3.2l-1.3-3.3h-6.6l-1.3,3.3h-3.2L59.7,99.5z M61.3,103.8l-2.2,5.5h4.3L61.3,103.8z"
		/>
	<path class="st1" d="M72.9,99.5h3l3.7,11.2l3.8-11.2h3l2.7,16.1h-3l-1.7-10.2L81,115.6h-2.7l-3.4-10.2l-1.8,10.2h-3L72.9,99.5z"/>
	<path class="st1" d="M91.5,99.5h3.1v6.1h5.4v-6.1h3.1v16.1H100v-7.1h-5.4v7.1h-3.1V99.5z"/>
	<path class="st1" d="M114.3,99.1c2.2,0,4.4,0.9,5.9,2.5c1.6,1.6,2.5,3.7,2.5,6c0,2.2-0.8,4.4-2.4,6c-1.6,1.6-3.7,2.4-5.9,2.4
		c-2.3,0.1-4.4-0.8-6-2.5c-2.6-2.7-3.2-6.9-1.3-10.2c0.7-1.3,1.8-2.4,3.1-3.1C111.5,99.5,112.9,99.1,114.3,99.1z M114.3,102.1
		c-1.4,0-2.8,0.6-3.8,1.6c-1,1.1-1.6,2.5-1.5,4c-0.1,1.6,0.6,3.2,1.9,4.2c1,0.8,2.2,1.2,3.4,1.2c1.4,0,2.8-0.5,3.7-1.6
		c1-1,1.5-2.4,1.5-3.9c0-1.4-0.5-2.8-1.5-3.9C117.1,102.7,115.7,102.1,114.3,102.1z"/>
	<path class="st1" d="M125.6,99.5h8.8v3h-5.7v2.9h5.7v2.9h-5.7v4.2h5.7v3h-8.8L125.6,99.5z"/>
	<path class="st1" d="M148.4,99.5h3.1l6.2,16.1h-3.2l-1.3-3.3h-6.6l-1.3,3.3h-3.2L148.4,99.5z M150,103.8l-2.2,5.5h4.3L150,103.8z"
		/>
	<path class="st1" d="M160.1,99.5h8v3h-4.9v13.1h-3L160.1,99.5L160.1,99.5z"/>
	<path class="st1" d="M170.5,99.5h8.8v3h-5.7v2.9h5.7v2.9h-5.7v4.2h5.7v3h-8.8V99.5z"/>
	<path class="st1" d="M182.1,99.5h3.1v6.1h5.4v-6.1h3.1v16.1h-3.1v-7.1h-5.4v7.1h-3.1V99.5z"/>
	<path class="st1" d="M195.8,99.5h8.9v3h-2.9v13.1h-3.1v-13.1h-2.9V99.5z"/>
	<path class="st1" d="M221.6,102.3l-2.1,2c-1.2-1.4-3-2.2-4.9-2.3c-1.5,0-2.9,0.6-3.9,1.6c-1.1,1-1.7,2.4-1.6,3.9c0,1,0.2,2,0.7,2.9
		c0.5,0.9,1.1,1.5,2,2c0.9,0.5,1.8,0.7,2.8,0.7c0.8,0,1.6-0.2,2.4-0.5c0.9-0.4,1.7-1.1,2.4-1.8l2.1,2.2c-0.9,1-2.1,1.9-3.4,2.4
		c-1.1,0.4-2.4,0.7-3.6,0.7c-2.3,0.1-4.5-0.8-6.1-2.4c-1.6-1.6-2.5-3.8-2.4-6.1c0-1.5,0.4-3,1.1-4.3c0.7-1.3,1.8-2.3,3.1-3
		c1.3-0.8,2.9-1.1,4.4-1.1c1.3,0,2.6,0.3,3.8,0.8C219.6,100.5,220.7,101.3,221.6,102.3z"/>
	<path class="st1" d="M222.7,99.5h8.9v3h-2.9v13.1h-3.1v-13.1h-2.9V99.5z"/>
	<path class="st1" d="M233.7,115.6V99.5h2.5c1.1,0,2.1,0.1,3.2,0.3c0.9,0.2,1.7,0.7,2.3,1.4c0.6,0.7,0.9,1.6,0.9,2.5
		c0,0.6-0.1,1.2-0.4,1.7c-0.3,0.6-0.8,1-1.3,1.4c0.9,0.3,1.6,0.9,2.1,1.7c0.5,0.7,0.7,1.5,0.7,2.4c0,0.9-0.2,1.8-0.7,2.5
		c-0.5,0.7-1.1,1.3-1.8,1.7c-1,0.4-2,0.7-3.1,0.6L233.7,115.6L233.7,115.6z M236.7,102.4v3.4h0.7c0.6,0,1.2-0.2,1.7-0.5
		c0.4-0.3,0.6-0.8,0.5-1.3c0-0.5-0.2-0.9-0.5-1.2c-0.5-0.3-1-0.5-1.6-0.4H236.7z M236.7,108.6v4.1h0.8c0.9,0.1,1.8-0.1,2.6-0.5
		c0.4-0.3,0.7-0.8,0.7-1.4c0-0.6-0.3-1.2-0.8-1.6c-0.8-0.5-1.7-0.7-2.6-0.6H236.7z"/>
	<path class="st1" d="M254.2,99.1c2.2,0,4.4,0.9,5.9,2.5c1.6,1.6,2.5,3.7,2.5,6c0,2.2-0.8,4.4-2.4,6c-1.6,1.6-3.7,2.4-5.9,2.4
		c-2.3,0.1-4.4-0.8-6-2.5c-2.6-2.7-3.2-6.9-1.3-10.2c0.7-1.3,1.8-2.4,3.1-3.1C251.4,99.5,252.8,99.1,254.2,99.1z M254.2,102.1
		c-1.4,0-2.8,0.6-3.8,1.6c-1,1.1-1.6,2.5-1.5,4c-0.1,1.6,0.6,3.2,1.9,4.2c1,0.8,2.2,1.2,3.4,1.2c1.4,0,2.8-0.5,3.7-1.6
		c1-1,1.5-2.4,1.5-3.9c0-1.4-0.5-2.8-1.5-3.9C257,102.7,255.6,102.1,254.2,102.1z"/>
</g>
<g id="Triangle">
	
		<linearGradient id="SVGID_1_" gradientUnits="userSpaceOnUse" x1="425.9341" y1="343.515" x2="545.8841" y2="343.515" gradientTransform="matrix(0.9494 -0.3198 0.3198 0.9494 -228.3349 -103.755)">
		<stop  offset="0" style="stop-color:#81358A"/>
		<stop  offset="1" style="stop-color:#064169"/>
	</linearGradient>
	<polygon class="st2" points="328.6,42.3 316.5,31.6 297.9,126.4 404,90.6 407,74.9 316.2,105.5 	"/>
	
		<linearGradient id="SVGID_2_" gradientUnits="userSpaceOnUse" x1="1419.7139" y1="-1328.8165" x2="1540.6366" y2="-1328.8165" gradientTransform="matrix(-0.7496 -0.6596 0.6596 -0.7496 2321.9961 47.6654)">
		<stop  offset="0" style="stop-color:#35A8E0"/>
		<stop  offset="1" style="stop-color:#452778"/>
	</linearGradient>
	<polygon class="st3" points="319.3,89.7 316.2,105.5 407,74.9 322.7,0 307.6,5.1 379.9,69.3 	"/>
	
		<linearGradient id="SVGID_3_" gradientUnits="userSpaceOnUse" x1="2368.9065" y1="361.7299" x2="2489.7703" y2="361.7299" gradientTransform="matrix(-0.1999 0.9794 -0.9794 -0.1999 1176.364 -2234.3943)">
		<stop  offset="0" style="stop-color:#81358A"/>
		<stop  offset="1" style="stop-color:#4683C3"/>
	</linearGradient>
	<polygon class="st4" points="364.7,74.4 379.9,69.3 307.6,5.1 285.9,115.7 297.9,126.4 316.5,31.6 	"/>
</g>
</svg>
