<?xml version="1.0" encoding="utf-8"?>
<!-- Generator: Adobe Illustrator 21.0.2, SVG Export Plug-In . SVG Version: 6.00 Build 0)  -->
<svg version="1.1" id="Layer_1" xmlns="http://www.w3.org/2000/svg" xmlns:xlink="http://www.w3.org/1999/xlink" x="0px" y="0px"
	 viewBox="0 0 493.6 126.5" style="enable-background:new 0 0 493.6 126.5;" xml:space="preserve">
<style type="text/css">
	.st0{display:none;}
	.st1{display:inline;fill:#E31E26;}
	.st2{display:inline;}
	.st3{fill:#E31E26;}
	.st4{fill-rule:evenodd;clip-rule:evenodd;fill:#666666;}
	.st5{fill-rule:evenodd;clip-rule:evenodd;fill:#1D1D1B;}
	.st6{fill:url(#SVGID_1_);}
	.st7{fill:url(#SVGID_2_);}
	.st8{fill:url(#SVGID_3_);}
</style>
<g class="st0">
	<polygon class="st1" points="22.5,119.3 27.5,77.7 53,77.7 48.8,112.6 71.7,106.8 83.3,11.5 61.3,11.5 55.5,59.5 30,59.5 
		35.5,11.5 13.8,11.5 0,124.8 0.9,124.8 	"/>
	<g class="st2">
		<path class="st3" d="M106.4,98c-0.2-6,0.8-15.3,2.5-29.7c4-35.6,5-40.3,16.3-40.3c11.8,0,12,4.7,7.8,40.3
			c-1.2,10.3-2.2,18-3.2,23.7l22.5-5.7c0.9-5.3,1.7-11.2,2.5-18c5.8-48.6-0.2-58.5-26.8-58.5c-30.2,0-35.1,9.8-41,58.5
			c-1.9,15.2-2.6,26.5-1.8,35L106.4,98z"/>
		<path class="st3" d="M91.5,120.2c4.6,4.7,11.8,6.2,22.1,6.2c19.8,0,28.8-4.2,34.3-20.6L91.5,120.2z"/>
	</g>
	<g class="st2">
		<polygon class="st3" points="177.6,79.9 199.9,74.2 205.2,29.4 225.7,29.4 228,11.5 165.9,11.5 163.4,29.4 183.6,29.4 		"/>
		<polygon class="st3" points="175.3,98.9 172.2,124.8 193.9,124.8 197.6,93.3 		"/>
	</g>
	<g class="st2">
		<path d="M251.8,61.1l3.8-32.5c0,0,5.7-0.5,9.8-0.5c10,0,11.4,4.1,9,27.3l22.3-5.7c1.9-30.1-4.6-39.8-30.8-39.8
			c-15.8,0-30.1,1.7-30.1,1.7L229,66.8L251.8,61.1z"/>
		<path d="M272.1,74.3c-3.6,29.1-5.1,34-15.9,34c-4.3,0-7.5-0.3-9.8-0.7l3.2-27.6l-22.8,5.8l-4.7,38.9c0,0,14.7,1.7,29.5,1.7
			c32.6,0,37.6-11.3,43.3-57.9L272.1,74.3z"/>
	</g>
	<g class="st2">
		<path d="M330.2,41.1C332.5,30,335.5,28,342.8,28c6.1,0,9.1,1.3,10,7.4l21-5.3c-2.4-16-10.9-20.2-28.2-20.2c-25,0-32.7,6.8-38,37
			L330.2,41.1z"/>
		<path d="M352.2,54c-0.4,4.1-0.9,8.9-1.6,14.4c-4.2,35.5-5.3,40-17,40c-11.3,0-11.3-4.5-7.2-40c0.3-2.9,0.6-5.6,0.9-8L305,66
			c-0.1,0.8-0.2,1.5-0.3,2.3c-6,48.3,0.2,58.1,26.5,58.1c30.3,0,35.3-9.8,41.3-58.1c0.9-7.6,1.5-14.2,1.8-20L352.2,54z"/>
	</g>
	<g class="st2">
		<polygon points="399.6,41.9 389.8,124.8 411.4,124.8 422,36.3 		"/>
		<polygon points="445.6,11.8 445.6,11.5 383.5,11.5 381.1,28.2 		"/>
	</g>
	<circle class="st1" cx="482" cy="11.5" r="11.5"/>
</g>
<g>
	<g>
		<g id="INDIGO_Черный_7_">
			<rect x="188.2" y="10.3" class="st4" width="10.6" height="78.5"/>
			<g>
				<path class="st4" d="M201,51.6l44-13.1c2.8,11.4,1.8,21.6-2.9,30.6c-4.7,9-12.2,15-22.4,18.1c-5.3,1.6-10.6,2-15.7,1.3
					c-5.1-0.7-10-2.6-14.8-5.6c-4-2.5-7.4-5.7-10.2-9.6c-2.8-3.9-4.9-8.3-6.4-13.2c-1.5-5.1-1.9-10.1-1.3-15.2
					c0.6-5.1,2.2-10,4.8-14.7c2.4-4.5,5.5-8.3,9.3-11.3c3.8-3,10-6.1,13.4-6.8c7.3-1.6,14-2.3,20.4-0.5c6.4,1.8,11.9,5.4,16.5,10.9
					L223,26.1c-3.2-2.4-6.7-3.8-10.4-4.4c-3.7-0.6-7.6-0.3-11.6,0.9c-3.4,1-6.4,2.6-9,4.8c-2.7,2.2-4.8,4.9-6.5,8
					c-1.7,3.3-2.8,6.8-3.2,10.6c-0.4,3.8-0.1,7.4,0.9,10.9c1.1,3.8,2.7,7.1,4.9,10.1c2.2,3,4.8,5.3,7.8,7.1c3.2,1.8,6.6,3,10.2,3.5
					c3.6,0.5,7.1,0.2,10.4-0.8c5.4-1.6,9.8-4.5,13-8.7c3.3-4.2,5.4-9.5,6.5-16l-32.2,9.6L201,51.6z"/>
				<polygon class="st5" points="195.1,86 193.8,85.4 193,85 192.3,84.7 191.8,84.4 191.3,84.1 190.8,83.8 190,83.4 189.3,83 
					188.2,82.3 188.2,16.7 189.7,15.8 191.2,15 192.6,14.3 193.9,13.7 196,12.8 197.4,12.3 198.8,11.9 198.8,87.3 197.7,87 
					196.5,86.5 				"/>
			</g>
			<path class="st5" d="M171.5,21.3c-7.1-7.3-16.5-10.9-28.1-10.9h-25.8v59.3L78.9,10.3H68.5v78.5h10.4V27.6l38.8,61.2h22.6
				c6.5,0,11.7-0.5,15.5-1.6c3.8-1.1,7.5-2.8,10.8-5.3c5-3.7,8.9-8.2,11.5-13.7c2.7-5.5,4-12,4-18.7
				C182.2,37.7,178.6,28.6,171.5,21.3z M163.4,70.7c-5,5.1-11.8,7.6-20.4,7.6h-13.6V21H141c9.4,0,16.7,2.6,22,7.7
				c5.3,5.1,8.1,11.7,8.1,20.7C171,58.2,168.4,65.6,163.4,70.7z"/>
			<rect x="43.7" y="10.3" class="st5" width="11.2" height="78.5"/>
			<path class="st5" d="M302.5,34c-1.9-4.7-4.7-8.9-8.5-12.6c-3.7-3.7-7.7-6.4-12.1-8.3c-4.4-1.9-9.2-2.8-14.4-2.8
				c-5.1,0-9.8,0.9-14.2,2.8c-4.4,1.8-8.4,4.6-12,8.2c-3.8,3.8-6.7,8.1-8.6,12.8c-2,4.7-3,9.8-3,15c0,5.2,0.8,10,2.4,14.6
				c1.6,4.6,4,8.6,7.2,12.2c3.7,4.3,7.9,7.5,12.6,9.7c4.7,2.2,9.8,3.3,15.4,3.3c5.5,0,10.6-1.1,15.4-3.2c4.7-2.1,9-5.3,12.8-9.5
				c3.2-3.6,5.7-7.6,7.3-12.2c1.6-4.5,2.4-9.5,2.4-14.8C305.4,43.7,304.4,38.7,302.5,34z M286.6,69.7c-5.2,5.5-11.6,8.3-19.2,8.3
				c-3.5,0-6.8-0.7-10.2-2.2c-3.3-1.5-6.3-3.6-8.8-6.3c-2.4-2.6-4.3-5.6-5.6-9.1c-1.3-3.5-1.9-7.2-1.9-11.2c0-3.7,0.7-7.3,2.1-10.8
				c1.4-3.5,3.4-6.6,6-9.3c2.4-2.5,5.2-4.5,8.4-5.9c3.2-1.3,6.5-2,10-2c3.9,0,7.5,0.7,10.7,2.2c3.2,1.5,6.2,3.8,9,6.8
				c2.4,2.7,4.2,5.6,5.4,8.7c1.2,3.2,1.9,6.5,1.9,10C294.3,57.3,291.7,64.1,286.6,69.7z"/>
		</g>
		<g>
			<path d="M43.7,99.6H47c1.8,0,3,0.2,3.8,0.5c0.8,0.3,1.4,0.9,1.8,1.6c0.4,0.7,0.7,1.6,0.7,2.6c0,1.1-0.3,2.1-0.9,2.8
				c-0.6,0.7-1.4,1.3-2.4,1.6c-0.6,0.2-1.7,0.3-3.2,0.3v6.8h-3.1V99.6z M46.8,105.9h1c0.8,0,1.3-0.1,1.6-0.2s0.5-0.3,0.7-0.5
				c0.2-0.3,0.3-0.6,0.3-0.9c0-0.6-0.2-1.1-0.7-1.4c-0.4-0.2-1-0.3-1.9-0.3h-0.9V105.9z"/>
			<path d="M56.3,99.6h8.8v3h-5.7v2.9h5.7v2.9h-5.7v4.2h5.7v3h-8.8V99.6z"/>
			<path d="M68,99.6h3.1v5.6l4.4-5.6h3.7l-5.6,7.2l6.2,8.9H76l-5-7.2v7.2H68V99.6z"/>
			<path d="M92.3,115.7l-4.5-11.8l-4.5,11.8H80l6.2-16.1h3.1l6.2,16.1H92.3z"/>
			<path d="M102.3,99.6h3.1l6.2,16.1h-3.2l-1.3-3.3h-6.6l-1.3,3.3h-3.2L102.3,99.6z M103.9,103.9l-2.2,5.5h4.3L103.9,103.9z"/>
			<path d="M115.6,99.6h3l3.7,11.2l3.8-11.2h3l2.7,16.1h-3l-1.7-10.2l-3.4,10.2h-2.7l-3.4-10.2l-1.8,10.2h-3L115.6,99.6z"/>
			<path d="M134.2,99.6h3.1v6.1h5.4v-6.1h3.1v16.1h-3.1v-7.1h-5.4v7.1h-3.1V99.6z"/>
			<path d="M157,99.2c2.3,0,4.2,0.8,5.9,2.5c1.6,1.6,2.5,3.7,2.5,6c0,2.4-0.8,4.3-2.4,6c-1.6,1.6-3.6,2.4-5.9,2.4
				c-2.4,0-4.4-0.8-6-2.5c-1.6-1.7-2.4-3.7-2.4-6c0-1.5,0.4-3,1.1-4.2c0.7-1.3,1.8-2.3,3.1-3.1C154.1,99.6,155.5,99.2,157,99.2z
				 M157,102.2c-1.5,0-2.7,0.5-3.8,1.6c-1,1-1.5,2.4-1.5,4c0,1.8,0.6,3.2,1.9,4.2c1,0.8,2.1,1.2,3.4,1.2c1.5,0,2.7-0.5,3.7-1.6
				c1-1.1,1.5-2.3,1.5-3.9c0-1.5-0.5-2.8-1.5-3.9C159.7,102.7,158.5,102.2,157,102.2z"/>
			<path d="M168.3,99.6h8.8v3h-5.7v2.9h5.7v2.9h-5.7v4.2h5.7v3h-8.8V99.6z"/>
			<path d="M191.1,99.6h3.1l6.2,16.1h-3.2l-1.3-3.3h-6.6l-1.3,3.3h-3.2L191.1,99.6z M192.7,103.9l-2.2,5.5h4.3L192.7,103.9z"/>
			<path d="M202.8,99.6h8v3h-4.9v13.1h-3V99.6z"/>
			<path d="M213.2,99.6h8.8v3h-5.7v2.9h5.7v2.9h-5.7v4.2h5.7v3h-8.8V99.6z"/>
			<path d="M224.8,99.6h3.1v6.1h5.4v-6.1h3.1v16.1h-3.1v-7.1h-5.4v7.1h-3.1V99.6z"/>
			<path d="M238.5,99.6h8.9v3h-2.9v13.1h-3.1v-13.1h-2.9V99.6z"/>
			<path d="M264.3,102.4l-2.1,2c-1.5-1.5-3.1-2.3-4.9-2.3c-1.5,0-2.8,0.5-3.9,1.6c-1.1,1.1-1.6,2.3-1.6,3.9c0,1.1,0.2,2,0.7,2.9
				s1.1,1.5,2,2c0.9,0.5,1.8,0.7,2.8,0.7c0.9,0,1.7-0.2,2.4-0.5c0.7-0.3,1.5-0.9,2.4-1.8l2.1,2.2c-1.2,1.2-2.3,2-3.4,2.4
				c-1.1,0.4-2.3,0.7-3.6,0.7c-2.5,0-4.6-0.8-6.1-2.4c-1.6-1.6-2.4-3.6-2.4-6.1c0-1.6,0.4-3,1.1-4.3c0.7-1.2,1.8-2.3,3.1-3
				c1.4-0.8,2.8-1.1,4.4-1.1c1.3,0,2.6,0.3,3.8,0.8C262.4,100.6,263.4,101.4,264.3,102.4z"/>
			<path d="M265.4,99.6h8.9v3h-2.9v13.1h-3.1v-13.1h-2.9V99.6z"/>
			<path d="M276.4,115.7V99.6h2.5c1.5,0,2.5,0.1,3.2,0.3c1,0.3,1.7,0.7,2.3,1.4c0.6,0.7,0.9,1.5,0.9,2.5c0,0.6-0.1,1.2-0.4,1.7
				c-0.3,0.5-0.7,1-1.3,1.4c1,0.5,1.7,1,2.1,1.7c0.5,0.7,0.7,1.5,0.7,2.4c0,0.9-0.2,1.7-0.7,2.5c-0.5,0.7-1.1,1.3-1.8,1.7
				c-0.7,0.4-1.8,0.6-3.1,0.6H276.4z M279.5,102.5v3.4h0.7c0.7,0,1.3-0.2,1.7-0.5c0.4-0.3,0.5-0.7,0.5-1.3c0-0.5-0.2-0.9-0.5-1.2
				c-0.3-0.3-0.9-0.4-1.6-0.4H279.5z M279.5,108.7v4.1h0.8c1.3,0,2.1-0.2,2.6-0.5c0.4-0.3,0.7-0.8,0.7-1.4c0-0.7-0.3-1.2-0.8-1.6
				c-0.5-0.4-1.4-0.6-2.6-0.6H279.5z"/>
			<path d="M297,99.2c2.3,0,4.2,0.8,5.9,2.5c1.6,1.6,2.5,3.7,2.5,6c0,2.4-0.8,4.3-2.4,6c-1.6,1.6-3.6,2.4-5.9,2.4
				c-2.4,0-4.4-0.8-6-2.5s-2.4-3.7-2.4-6c0-1.5,0.4-3,1.1-4.2c0.7-1.3,1.8-2.3,3.1-3.1C294.1,99.6,295.5,99.2,297,99.2z M297,102.2
				c-1.5,0-2.7,0.5-3.8,1.6c-1,1-1.5,2.4-1.5,4c0,1.8,0.6,3.2,1.9,4.2c1,0.8,2.1,1.2,3.4,1.2c1.5,0,2.7-0.5,3.7-1.6
				c1-1.1,1.5-2.3,1.5-3.9c0-1.5-0.5-2.8-1.5-3.9C299.7,102.7,298.5,102.2,297,102.2z"/>
		</g>
	</g>
	<g id="Пенроуз_Новый_15_">
		
			<linearGradient id="SVGID_1_" gradientUnits="userSpaceOnUse" x1="689.0214" y1="-336.7611" x2="808.9286" y2="-336.7611" gradientTransform="matrix(0.9476 -0.3196 0.3196 0.9476 -217.988 625.981)">
			<stop  offset="0" style="stop-color:#7E7E7E"/>
			<stop  offset="1" style="stop-color:#666666"/>
		</linearGradient>
		<polygon class="st6" points="371.4,42.3 359.3,31.6 340.7,126.5 446.8,90.7 449.9,74.9 359,105.6 		"/>
		
			<linearGradient id="SVGID_2_" gradientUnits="userSpaceOnUse" x1="2179.8333" y1="-934.1817" x2="2300.6074" y2="-934.1817" gradientTransform="matrix(-0.7505 -0.6608 0.6608 -0.7505 2675.9343 845.2986)">
			<stop  offset="0" style="stop-color:#A8A8A8"/>
			<stop  offset="1" style="stop-color:#6B6B6B"/>
		</linearGradient>
		<polygon class="st7" points="362.1,89.8 359,105.6 449.9,74.9 365.5,0 350.4,5.1 422.7,69.3 		"/>
		
			<linearGradient id="SVGID_3_" gradientUnits="userSpaceOnUse" x1="1951.4065" y1="655.9135" x2="2072.3042" y2="655.9135" gradientTransform="matrix(-0.197 0.9804 -0.9804 -0.197 1418.9078 -1770.5704)">
			<stop  offset="0" style="stop-color:#7E7E7E"/>
			<stop  offset="1" style="stop-color:#989898"/>
		</linearGradient>
		<polygon class="st8" points="407.5,74.4 422.7,69.3 350.4,5.1 328.7,115.8 340.7,126.5 359.3,31.6 		"/>
	</g>
</g>
</svg>
